# xmcd CD database file
#
# Track frame offsets:
#	150
#	18750
#	36687
#	60350
#	78325
#	107882
#	124625
#	128557
#	133532
#	141730
#	158360
#	170052
#	180925
#	187777
#	199935
#	223402
#	236470
#	246635
#
# Disc length: 3790 seconds
#
# Revision: 5
# Processed by: cddbd v1.5.2PL0 Copyright (c) Steve Scherf et al.
# Submitted via: CDex 1.70beta3
#
DISCID=fe0ecc12
DTITLE=Build An Ark - Peace With Every Step
DYEAR=2004
DGENRE=Jazz
TTITLE0=You've Gotta Have Freedom
TTITLE1=Vibes From The Tribe
TTITLE2=Conversations
TTITLE3=Precious, Priceless
TTITLE4=Love Is Our Nationality
TTITLE5=Pure Imagination/Tortoise And The Hare
TTITLE6=Drumprovise (Interlude)
TTITLE7=Japan (Interlude)
TTITLE8=Peace With Every Step
TTITLE9=Equipoise
TTITLE10=Collective
TTITLE11=Peace And Love
TTITLE12=The Stars Are Singing Too (Interlude)
TTITLE13=Nu Baya Roots
TTITLE14=Village Soft
TTITLE15=The Blessing Song
TTITLE16=Guidance
TTITLE17=Always There
EXTD=YEAR: 2004
EXTT0=
EXTT1=
EXTT2=
EXTT3=
EXTT4=
EXTT5=
EXTT6=
EXTT7=
EXTT8=
EXTT9=
EXTT10=
EXTT11=
EXTT12=
EXTT13=
EXTT14=
EXTT15=
EXTT16=
EXTT17=
PLAYORDER=
